<?xml version="1.0" standalone="no"?>
<!DOCTYPE svg PUBLIC "-//W3C//DTD SVG 20010904//EN"
 "http://www.w3.org/TR/2001/REC-SVG-20010904/DTD/svg10.dtd">
<svg version="1.0" xmlns="http://www.w3.org/2000/svg"
 width="265.000000pt" height="250.000000pt" viewBox="0 0 265.000000 250.000000"
 preserveAspectRatio="xMidYMid meet">

<g xmlns="http://www.w3.org/2000/svg" transform="translate(0.000000,250.000000) scale(0.100000,-0.100000)">
<path d="M760 1815 l-575 -575 578 -578 577 -577 577 577 578 578 -575 575 c-316 316 -577 575 -580 575 -3 0 -264 -259 -580 -575z m1140 -20 l555 -555 -558 -558 -557 -557 -557 557 -558 558 555 555 c305 305 557 555 560 555 3 0 255 -250 560 -555z" style="stroke-width: 20px; fill: rgb(95, 101, 103);"/>
<path d="M922 1818 c-16 -16 -15 -83 2 -116 8 -15 169 -181 358 -369 264 -263 350 -343 375 -348 36 -7 87 14 103 44 6 13 10 160 10 404 l0 385 -22 6 c-69 18 -152 -1 -194 -45 l-29 -30 -3 -146 -4 -146 -177 177 c-147 147 -184 179 -217 186 -57 14 -188 12 -202 -2z" style="stroke-width: 20px; stroke-opacity: 0.45; fill: rgb(255, 32, 32);"/>
<path d="M958 1485 c-15 -8 -32 -24 -38 -35 -6 -12 -10 -158 -10 -399 0 -366 1 -381 19 -391 50 -26 153 -5 197 41 l29 30 3 146 4 146 177 -177 c147 -147 184 -179 217 -186 57 -14 188 -12 202 2 16 16 15 83 -2 116 -8 15 -169 181 -358 370 -371 370 -375 373 -440 337z" style="stroke-width: 20px; stroke-opacity: 0.45; fill: rgb(255, 32, 32);"/>
</g>
</svg>
